<svg width="50" height="50" viewBox="0 0 50 50" fill="none" xmlns="http://www.w3.org/2000/svg">
<g clip-path="url(#clip0_419_1109)">
<path d="M50 24.9999C50 21.9419 49.4499 19.0125 48.445 16.3043L25 15.2173L1.55498 16.3042C0.550098 19.0125 0 21.9419 0 24.9999C0 28.0579 0.550098 30.9873 1.55498 33.6955L25 34.7825L48.445 33.6956C49.4499 30.9873 50 28.0579 50 24.9999Z" fill="#F0F0F0"/>
<path d="M25 49.9999C35.7491 49.9999 44.9126 43.2156 48.445 33.6956H1.55493C5.08726 43.2156 14.2508 49.9999 25 49.9999Z" fill="#0052B4"/>
<path d="M1.55493 16.3044H48.4451C44.9126 6.78437 35.7491 0 25 0C14.2508 0 5.08726 6.78437 1.55493 16.3044V16.3044Z" fill="#D80027"/>
<path d="M31.5219 17.3915H27.1741L27.8988 11.9566L30.7972 9.78271L33.6958 11.9566V16.3045L31.5219 17.3915Z" fill="#338AF3"/>
<path d="M18.4783 17.3915H22.8261L22.1014 11.9566L19.2029 9.78271L16.3044 11.9566V16.3045L18.4783 17.3915Z" fill="#338AF3"/>
<path d="M27.8986 17.3915H22.1013V11.9566L25 9.78271L27.8986 11.9566V17.3915Z" fill="#0052B4"/>
<path d="M16.3044 16.3044V28.2609C16.3044 31.1079 17.6796 33.6397 19.8007 35.2269L21.3225 34.8461L23.2428 36.778C23.8107 36.895 24.3983 36.9566 25.0001 36.9566C25.5988 36.9566 26.1834 36.8958 26.7483 36.7799L28.9404 34.9547L30.1994 35.2234C32.3196 33.6363 33.6958 31.1071 33.6958 28.2609V16.3044H16.3044Z" fill="#F0F0F0"/>
<path d="M16.3044 16.3044H19.7827V19.7827H16.3044V16.3044Z" fill="#D80027"/>
<path d="M23.261 16.3044H26.7392V19.7827H23.261V16.3044Z" fill="#D80027"/>
<path d="M30.2175 16.3044H33.6958V19.7827H30.2175V16.3044Z" fill="#D80027"/>
<path d="M19.7827 19.7827H23.2609V23.2609H19.7827V19.7827Z" fill="#D80027"/>
<path d="M26.7393 19.7827H30.2175V23.2609H26.7393V19.7827Z" fill="#D80027"/>
<path d="M16.3044 23.2598H19.7827V26.738H16.3044V23.2598Z" fill="#D80027"/>
<path d="M19.7827 26.738H23.2609V30.2163H19.7827V26.738Z" fill="#D80027"/>
<path d="M23.261 23.2598H26.7392V26.738H23.261V23.2598Z" fill="#D80027"/>
<path d="M30.2175 23.2598H33.6958V26.738H30.2175V23.2598Z" fill="#D80027"/>
<path d="M26.7393 26.738H30.2175V30.2163H26.7393V26.738Z" fill="#D80027"/>
<path d="M23.261 30.2163H26.7392V33.6945H23.261V30.2163Z" fill="#D80027"/>
<path d="M19.7826 30.2166H16.5288C16.8272 31.5095 17.414 32.6926 18.2185 33.6948H19.7826V30.2166Z" fill="#D80027"/>
<path d="M30.2175 33.695H31.7816C32.5863 32.6929 33.1728 31.5097 33.4712 30.2168H30.2175V33.695Z" fill="#D80027"/>
<path d="M19.7827 33.6951V35.2127C20.7943 35.974 21.9766 36.5198 23.2609 36.7817V33.6951H19.7827Z" fill="#D80027"/>
<path d="M26.7393 33.6951V36.7817C28.0237 36.52 29.2059 35.974 30.2175 35.2127V33.6951H26.7393Z" fill="#D80027"/>
</g>
<defs>
<clipPath id="clip0_419_1109">
<rect width="50" height="50" fill="white"/>
</clipPath>
</defs>
</svg>
