<svg width="50" height="50" viewBox="0 0 50 50" fill="none" xmlns="http://www.w3.org/2000/svg">
<g clip-path="url(#clip0_419_1102)">
<path d="M25 50C38.8071 50 50 38.8071 50 25C50 11.1929 38.8071 0 25 0C11.1929 0 0 11.1929 0 25C0 38.8071 11.1929 50 25 50Z" fill="#F0F0F0"/>
<path d="M50.0001 25C50.0001 15.0885 44.232 6.52446 35.8696 2.48071V47.5193C44.232 43.4756 50.0001 34.9116 50.0001 25V25Z" fill="#D80027"/>
<path d="M0 25C0 34.9116 5.76807 43.4756 14.1305 47.5194V2.48071C5.76807 6.52446 0 15.0885 0 25Z" fill="#6DA544"/>
<path d="M18.4783 25.0001C18.4783 28.602 21.3982 31.5219 25 31.5219C28.6019 31.5219 31.5218 28.602 31.5218 25.0001V22.8262H18.4783V25.0001Z" fill="#6DA544"/>
<path d="M33.6956 20.6522H27.1738C27.1738 19.4516 26.2005 18.4783 24.9999 18.4783C23.7993 18.4783 22.826 19.4516 22.826 20.6522H16.3042C16.3042 21.8529 17.35 22.8261 18.5505 22.8261H18.4781C18.4781 24.0268 19.4514 25 20.6521 25C20.6521 26.2007 21.6253 27.174 22.826 27.174H27.1738C28.3745 27.174 29.3478 26.2007 29.3478 25C30.5484 25 31.5217 24.0268 31.5217 22.8261H31.4492C32.6499 22.8261 33.6956 21.8529 33.6956 20.6522Z" fill="#FF9811"/>
</g>
<defs>
<clipPath id="clip0_419_1102">
<rect width="50" height="50" fill="white"/>
</clipPath>
</defs>
</svg>
